<svg
      xmlns="http://www.w3.org/2000/svg"
      width="275.92"
      height="400"
      version="1.1"
      viewBox="0 0 275.92 400"
      xmlSpace="preserve"
    >
      <g transform="matrix(1.33333 0 0 -1.33333 0 400)">
        <g transform="scale(.1)">
          <path
            fill="#000"
            fillOpacity="1"
            fillRule="nonzero"
            stroke="none"
            d="M1838.79 2566.39h-145.12c12.55-34.09 19.4-70.9 19.4-109.29v-111.26h134.09V220.547H222.234V2345.84h134.082v111.26c0 38.39 6.864 75.2 19.407 109.29H230.605C103.258 2566.39 0 2463.15 0 2335.79V230.598C0 103.23 103.258 0 230.605 0H1838.79c127.34 0 230.6 103.23 230.6 230.598V2335.79c0 127.36-103.26 230.6-230.6 230.6zm-212.43-109.29c0 39.54-9.99 76.76-27.53 109.29-38.95 72.22-115.26 121.3-203.06 121.3h-176.18c7.48 13.6 13.36 28.15 17.71 43.37 3.98 13.92 6.51 28.41 7.54 43.34.34 4.89.75 9.74.75 14.71 0 116.46-94.43 210.89-210.89 210.89-116.47 0-210.891-94.43-210.891-210.89 0-4.97.402-9.82.742-14.71 1.035-14.93 3.562-29.42 7.543-43.34 4.355-15.22 10.242-29.77 17.711-43.37H673.621c-87.805 0-164.113-49.08-203.058-121.3-17.547-32.53-27.532-69.75-27.532-109.29v-214.97H1626.36zm-500.16 317.3a92.405 92.405 0 00-19.24-43.34c-17.02-21.14-43.07-34.72-72.26-34.72-29.19 0-55.243 13.58-72.262 34.72-9.883 12.28-16.637 27.13-19.235 43.34-.765 4.82-1.285 9.7-1.285 14.71 0 51.16 41.621 92.78 92.782 92.78 51.16 0 92.78-41.62 92.78-92.78 0-5.01-.51-9.89-1.28-14.71"
          ></path>
        </g>
      </g>
</svg>